<svg width="16" height="16" viewBox="0 0 16 16" fill="none" xmlns="http://www.w3.org/2000/svg">
<path d="M14.025 10.7166L11.9083 10.475C11.6595 10.4457 11.4072 10.4733 11.1705 10.5556C10.9338 10.6378 10.7188 10.7727 10.5417 10.95L9.00834 12.4833C6.64283 11.2799 4.72006 9.35714 3.51667 6.99164L5.05834 5.44997C5.41667 5.09164 5.59167 4.59164 5.53334 4.0833L5.29167 1.9833C5.2446 1.57671 5.04956 1.20166 4.74372 0.929631C4.43789 0.657606 4.04264 0.507634 3.63334 0.508303H2.19167C1.25 0.508303 0.46667 1.29164 0.525003 2.2333C0.96667 9.34997 6.65834 15.0333 13.7667 15.475C14.7083 15.5333 15.4917 14.75 15.4917 13.8083V12.3666C15.5 11.525 14.8667 10.8166 14.025 10.7166Z" fill="white"/>
</svg>
